<svg width="175" height="175" viewBox="0 0 175 175" fill="none" xmlns="http://www.w3.org/2000/svg">
<mask id="mask0_12_432" style="mask-type:luminance" maskUnits="userSpaceOnUse" x="0" y="0" width="175" height="175">
<path d="M0 0H174.399V174.361H0V0Z" fill="white"/>
</mask>
<g mask="url(#mask0_12_432)">
<path d="M100.398 84.8234C98.5063 84.3535 96.6146 83.9902 94.7268 83.7178C97.669 80.8552 99.5607 76.4014 99.5607 71.4067C99.5607 63.5494 94.6399 58.4718 87.0218 58.4718C79.4077 58.4718 74.4829 63.5494 74.4829 71.4067C74.4829 76.3935 76.3707 80.8355 79.301 83.6981C77.3975 83.9745 75.5058 84.3456 73.626 84.8313C66.383 86.691 62.2284 90.9078 62.2284 96.3961V125.788C62.2284 131.312 66.229 135.951 71.5842 137.144V171.285C71.5842 172.008 71.8685 172.699 72.378 173.208C72.8874 173.718 73.5825 174.006 74.3013 174.006H99.7463C101.247 174.006 102.463 172.786 102.463 171.285V137.144C107.815 135.951 111.819 131.312 111.819 125.788V96.3961C111.819 90.8407 107.657 86.6238 100.398 84.8234ZM87.0218 63.9087C90.2642 63.9087 94.1226 65.2077 94.1226 71.4067C94.1226 76.9266 90.8724 81.5896 87.0218 81.5896C83.1753 81.5896 79.925 76.9266 79.925 71.4067C79.925 65.2077 83.7834 63.9087 87.0218 63.9087ZM106.381 125.788C106.381 128.307 104.77 130.479 102.463 131.454V105.126C102.463 103.626 101.247 102.406 99.7463 102.406C98.2417 102.406 97.0253 103.626 97.0253 105.126V168.565H90.0943V141.688C90.0943 140.188 88.874 138.968 87.3733 138.968C85.8726 138.968 84.6562 140.188 84.6562 141.688V168.565H77.0223V105.126C77.0223 103.626 75.8059 102.406 74.3013 102.406C72.8006 102.406 71.5842 103.626 71.5842 105.126V131.454C69.2778 130.479 67.6665 128.307 67.6665 125.788V96.3961C67.6665 92.7438 71.6434 90.9552 74.9806 90.0945C82.8277 88.0768 90.9395 88.0808 99.0908 90.1024C101.812 90.7775 106.381 92.4911 106.381 96.3961V125.788ZM146.644 59.605C145.455 59.605 144.286 59.6918 143.141 59.8379C137.011 47.1912 126.842 37.0241 114.193 30.9001C114.339 29.7512 114.426 28.5824 114.426 27.394C114.426 12.2874 102.132 0 87.0218 0C71.9159 0 59.6219 12.2874 59.6219 27.394C59.6219 28.5824 59.7088 29.7512 59.8549 30.8962C47.2054 37.0241 37.0361 47.1912 30.9108 59.8379C29.7616 59.6918 28.5926 59.605 27.4039 59.605C12.294 59.605 0 71.8963 0 87.0029C0 102.105 12.294 114.397 27.4039 114.397C28.5887 114.397 29.7576 114.314 30.9029 114.164C35.9185 124.513 43.6551 133.235 53.3821 139.481C53.8402 139.773 54.3457 139.915 54.8512 139.915C55.7437 139.915 56.6205 139.473 57.1418 138.664C57.9514 137.4 57.588 135.718 56.3243 134.905C47.786 129.424 40.934 121.851 36.3529 112.889C47.0791 109.173 54.8038 98.9744 54.8038 86.9989C54.8038 75.0274 47.0751 64.8287 36.3489 61.1133C41.8068 50.4407 50.4557 41.7938 61.1305 36.3371C64.8468 47.0649 75.0477 54.7879 87.0218 54.7879C98.9999 54.7879 109.201 47.0649 112.917 36.3371C123.592 41.7938 132.241 50.4407 137.699 61.1133C126.969 64.8287 119.244 75.0274 119.244 87.0029C119.244 98.9744 126.969 109.173 137.695 112.889C133.11 121.851 126.262 129.424 117.723 134.909C116.46 135.718 116.092 137.4 116.906 138.664C117.423 139.473 118.3 139.915 119.196 139.915C119.698 139.915 120.207 139.773 120.662 139.481C130.393 133.235 138.129 124.513 143.141 114.164C144.29 114.314 145.455 114.397 146.644 114.397C161.754 114.397 174.044 102.105 174.044 87.0029C174.044 71.8963 161.754 59.605 146.644 59.605ZM13.1787 103.709C14.5293 97.0042 20.4216 92.1003 27.4039 92.1003C34.3862 92.1003 40.2785 97.0042 41.6291 103.709C37.7944 106.978 32.8262 108.96 27.4039 108.96C21.9816 108.96 17.0134 106.978 13.1787 103.709ZM27.4039 86.6633C24.0984 86.6633 21.4089 83.9745 21.4089 80.6697C21.4089 77.3648 24.0984 74.676 27.4039 74.676C30.7094 74.676 33.3988 77.3648 33.3988 80.6697C33.3988 83.9745 30.7094 86.6633 27.4039 86.6633ZM49.3657 87.0029C49.3657 91.3974 48.0624 95.4919 45.8311 98.927C43.896 94.2719 40.2705 90.5525 35.7408 88.4756C37.6601 86.4304 38.837 83.6862 38.837 80.6697C38.837 74.3641 33.7069 69.2351 27.4039 69.2351C21.0969 69.2351 15.9708 74.3641 15.9708 80.6697C15.9708 83.6862 17.1477 86.4304 19.0631 88.4756C14.5372 90.5525 10.9078 94.2719 8.97666 98.927C6.74533 95.4919 5.44207 91.3974 5.44207 87.0029C5.44207 74.8932 15.2915 65.0419 27.4039 65.0419C39.5123 65.0419 49.3657 74.8932 49.3657 87.0029ZM72.7966 44.1036C74.1473 37.3952 80.0435 32.4913 87.0258 32.4913C94.0041 32.4913 99.9003 37.3952 101.251 44.1036C97.4123 47.3728 92.4481 49.351 87.0258 49.351C81.5995 49.351 76.6313 47.3728 72.7966 44.1036ZM87.0258 27.0544C83.7163 27.0544 81.0308 24.3655 81.0308 21.0607C81.0308 17.7559 83.7203 15.0671 87.0258 15.0671C90.3313 15.0671 93.0207 17.7559 93.0207 21.0607C93.0207 24.3655 90.3313 27.0544 87.0258 27.0544ZM105.449 39.3181C103.518 34.663 99.8885 30.9436 95.3627 28.8707C97.282 26.8254 98.4589 24.0773 98.4589 21.0607C98.4589 14.7591 93.3288 9.63013 87.0258 9.63013C80.7188 9.63013 75.5887 14.7591 75.5887 21.0607C75.5887 24.0773 76.7696 26.8254 78.685 28.8707C74.1591 30.9436 70.5297 34.663 68.5986 39.3181C66.3633 35.883 65.06 31.7885 65.06 27.394C65.06 15.2842 74.9134 5.43694 87.0218 5.43694C99.1342 5.43694 108.988 15.2842 108.988 27.394C108.988 31.7885 107.684 35.883 105.449 39.3181ZM146.644 65.0419C158.756 65.0419 168.606 74.8932 168.606 87.0029C168.606 91.3974 167.302 95.4919 165.071 98.927C163.14 94.2719 159.51 90.5525 154.985 88.4756C156.9 86.4304 158.077 83.6862 158.077 80.6697C158.077 74.3641 152.951 69.2351 146.644 69.2351C140.341 69.2351 135.211 74.3641 135.211 80.6697C135.211 83.6862 136.388 86.4304 138.307 88.4756C133.777 90.5525 130.152 94.2719 128.217 98.927C125.985 95.4919 124.682 91.3974 124.682 87.0029C124.682 74.8932 134.535 65.0419 146.644 65.0419ZM146.644 86.6633C143.338 86.6633 140.649 83.9745 140.649 80.6697C140.649 77.3648 143.338 74.676 146.644 74.676C149.949 74.676 152.639 77.3648 152.639 80.6697C152.639 83.9745 149.949 86.6633 146.644 86.6633ZM132.419 103.709C133.769 97.0042 139.661 92.1003 146.644 92.1003C153.626 92.1003 159.518 97.0042 160.869 103.709C157.034 106.978 152.066 108.96 146.644 108.96C141.221 108.96 136.253 106.978 132.419 103.709Z" fill="black"/>
</g>
</svg>
