<svg width="131" height="161" viewBox="0 0 131 161" fill="none" xmlns="http://www.w3.org/2000/svg">
<mask id="mask0_12_427" style="mask-type:luminance" maskUnits="userSpaceOnUse" x="0" y="0" width="131" height="161">
<path d="M0 0H130.773V160.088H0V0Z" fill="white"/>
</mask>
<g mask="url(#mask0_12_427)">
<path d="M67.0106 9C66.9751 9 66.9396 9 66.908 9C51.9497 9.05521 39.8671 21.2219 39.9224 36.177C39.9579 44.9993 44.2063 52.8199 50.7545 57.7379C46.1984 58.365 41.2399 60.1121 37.2912 63.8548C32.6838 68.2245 29.7529 75.146 27.1494 81.4009L14.8341 81.4482C14.199 70.7328 13.7809 61.4096 15.7611 56.9964C17.2877 53.6048 20.4987 53.3011 26.4197 53.234C26.5143 53.234 26.609 53.2301 26.6997 53.2183C28.1198 54.7997 30.175 55.7936 32.4629 55.7936C32.4708 55.7936 32.4827 55.7936 32.4906 55.7936C36.7587 55.7778 40.2064 52.3033 40.1906 48.0361C40.1748 43.7807 36.7193 40.3377 32.4629 40.3377C32.4551 40.3377 32.4432 40.3377 32.4353 40.3377C28.3644 40.3535 25.039 43.5125 24.755 47.5076C19.8952 47.5865 13.4495 48.1149 10.5186 54.638C7.84806 60.5774 8.48316 71.5531 9.07486 81.4679L5.86389 81.4798C5.10256 81.4837 4.37279 81.7874 3.83237 82.3277C3.29589 82.8719 2.99609 83.6015 3.00004 84.3627L3.09866 111.646C3.1026 112.407 3.40634 113.137 3.95071 113.673C4.48719 114.21 5.21696 114.509 5.97434 114.509H5.98617L16.1319 114.47L16.2897 157.556C16.2937 158.317 16.6013 159.047 17.1418 159.583C17.6782 160.12 18.408 160.42 19.1654 160.42H19.1772L112.544 160.076C114.134 160.069 115.416 158.779 115.408 157.19L115.25 114.107L124.414 114.072C126.003 114.068 127.285 112.774 127.278 111.189L127.179 83.9092C127.171 82.3237 125.885 81.042 124.303 81.042L124.291 81.0459L107.152 81.1051C107.124 81.0381 107.097 80.9671 107.065 80.8961C103.976 74.3257 100.556 66.9349 95.6964 62.5533C92.0988 59.3115 87.8661 57.797 83.9136 57.2331C90.1422 52.252 94.1224 44.5734 94.0909 35.9758C94.0356 21.0563 81.9215 9 67.0106 9ZM32.4629 46.0878C33.5517 46.0878 34.4392 46.9673 34.4432 48.0597C34.4471 49.1522 33.5635 50.0395 32.4708 50.0435C31.3742 50.0435 30.4867 49.164 30.4827 48.0716C30.4788 46.9791 31.3624 46.0918 32.4551 46.0878H32.4629ZM67.0106 14.7462C78.7539 14.7462 88.2961 24.2429 88.3395 35.9995C88.3829 47.7758 78.8683 57.3632 67.0855 57.4066C67.0579 57.4066 67.0303 57.4066 67.0066 57.4066C55.2593 57.4066 45.7171 47.9059 45.6737 36.1533C45.6303 24.3731 55.1449 14.7895 66.9277 14.7462C66.9553 14.7462 66.9829 14.7462 67.0106 14.7462ZM80.0044 62.7111C84.024 62.7111 88.4184 63.7325 91.8463 66.8245C95.2467 69.8888 97.9527 75.1026 100.817 81.1288L33.3978 81.3772C35.7686 75.8085 38.0802 71.0286 41.2478 68.0234C44.8098 64.6475 49.7683 63.3342 54.2692 63.208C54.4704 63.204 54.6873 63.2001 54.8846 63.2001C54.9161 63.2001 54.9477 63.2001 54.9792 63.2001C59.0936 63.2001 62.6043 64.1821 66.5017 65.2864C66.7581 65.3613 67.0224 65.3968 67.2867 65.3968C67.6023 65.3968 67.9178 65.3455 68.2216 65.2391C71.969 63.9494 75.3023 62.8215 79.4127 62.7189C79.5823 62.715 79.744 62.7111 79.9137 62.7111C79.9452 62.7111 79.9728 62.7111 80.0044 62.7111ZM121.439 86.8039L121.518 108.333L115.23 108.357L115.195 98.6985C115.187 97.1131 113.901 95.8353 112.319 95.8353H112.307L18.9405 96.1784C18.1792 96.1824 17.4494 96.486 16.909 97.0264C16.3725 97.5667 16.0727 98.3002 16.0767 99.0614L16.1122 108.724L8.83818 108.751L8.75929 87.218L121.439 86.8039ZM109.455 101.593L109.479 108.381L109.491 111.737L109.649 154.338L22.0292 154.662L21.8833 114.45L21.8714 111.216L21.8359 101.917L109.455 101.593Z" fill="black"/>
</g>
</svg>
