<svg width="130" height="157" viewBox="0 0 130 157" fill="none" xmlns="http://www.w3.org/2000/svg">
<mask id="mask0_12_442" style="mask-type:luminance" maskUnits="userSpaceOnUse" x="0" y="0" width="130" height="157">
<path d="M0 0H129.815V157H0V0Z" fill="white"/>
</mask>
<g mask="url(#mask0_12_442)">
<path fill-rule="evenodd" clip-rule="evenodd" d="M47.8791 53.827C47.8736 52.7204 47.9772 51.6247 48.1899 50.5453C48.3971 49.4604 48.7133 48.4083 49.1332 47.3835C49.553 46.3641 50.071 45.3937 50.6817 44.4724C51.2924 43.5511 51.9849 42.7007 52.7646 41.9157C53.5443 41.1362 54.3949 40.4384 55.3109 39.8224C56.227 39.2064 57.1975 38.6885 58.2172 38.2633C59.2368 37.8381 60.2891 37.5219 61.3742 37.3039C62.4593 37.0858 63.5498 36.9822 64.6566 36.9822C65.7581 36.9822 66.854 37.0858 67.9391 37.3039C69.0187 37.5219 70.0711 37.8381 71.0907 38.2633C72.1158 38.6885 73.0809 39.2064 74.0024 39.8224C74.9184 40.4384 75.7635 41.1362 76.5433 41.9157C77.323 42.7007 78.0209 43.5511 78.6316 44.4724C79.2423 45.3937 79.7603 46.3641 80.1801 47.3835C80.5945 48.4083 80.9108 49.4604 81.1234 50.5453C81.3361 51.6247 81.4397 52.7204 81.4342 53.827V62.1186H47.8791V53.827ZM43.6261 113.492H85.6818C86.1071 113.492 86.5269 113.449 86.9468 113.367C87.3612 113.285 87.7647 113.16 88.1572 112.996C88.5498 112.833 88.9261 112.637 89.275 112.402C89.6294 112.162 89.9566 111.895 90.2565 111.595C90.5564 111.296 90.8236 110.968 91.0635 110.614C91.2979 110.26 91.4997 109.889 91.6578 109.497C91.8214 109.104 91.9468 108.701 92.0286 108.286C92.1104 107.867 92.154 107.447 92.154 107.022V68.5839C92.154 68.1587 92.1104 67.739 92.0286 67.3247C91.9468 66.9103 91.8214 66.5015 91.6578 66.109C91.4997 65.7219 91.2979 65.3458 91.0635 64.9915C90.8236 64.6426 90.5564 64.3155 90.2565 64.0157C89.9566 63.7158 89.6294 63.4433 89.275 63.2089C88.9261 62.9744 88.5498 62.7727 88.1572 62.6092C87.7647 62.4511 87.3612 62.3257 86.9468 62.244C86.5269 62.1622 86.1071 62.1186 85.6818 62.1186H85.1147V53.827C85.1147 52.4805 84.9838 51.1504 84.7221 49.8366C84.4604 48.5174 84.0678 47.2417 83.5553 45.9988C83.0427 44.7559 82.4102 43.5784 81.6632 42.4609C80.9217 41.3433 80.0711 40.313 79.1223 39.3645C78.1736 38.4159 77.1376 37.5655 76.0198 36.8187C74.902 36.0718 73.7243 35.4449 72.4865 34.927C71.2434 34.4146 69.962 34.0276 68.6479 33.7659C67.3284 33.5042 65.998 33.3734 64.6566 33.3734C63.3099 33.3734 61.9794 33.5042 60.6654 33.7659C59.3458 34.0276 58.0645 34.4146 56.8267 34.927C55.5836 35.4449 54.4058 36.0718 53.288 36.8187C52.1702 37.5655 51.1397 38.4159 50.191 39.3645C49.2368 40.313 48.3916 41.3433 47.6446 42.4609C46.8976 43.5784 46.2706 44.7559 45.7526 45.9988C45.24 47.2417 44.8529 48.5174 44.5912 49.8366C44.3294 51.1504 44.1986 52.4805 44.1986 53.827V62.1186H43.6261C43.2008 62.1186 42.7809 62.1622 42.3665 62.244C41.9467 62.3257 41.5432 62.4511 41.1506 62.6147C40.758 62.7782 40.3872 62.9744 40.0328 63.2089C39.6784 63.4487 39.3567 63.7158 39.0513 64.0157C38.7515 64.3155 38.4843 64.6426 38.2498 64.9969C38.0154 65.3458 37.8136 65.7219 37.65 66.1144C37.4865 66.5069 37.3665 66.9103 37.2793 67.3247C37.1975 67.739 37.1593 68.1642 37.1539 68.5839V107.022C37.1593 107.447 37.1975 107.867 37.2847 108.286C37.3665 108.701 37.4865 109.104 37.65 109.497C37.8136 109.889 38.0154 110.26 38.2498 110.614C38.4843 110.968 38.7515 111.296 39.0513 111.595C39.3567 111.895 39.6784 112.162 40.0328 112.402C40.3872 112.637 40.758 112.833 41.1506 112.996C41.5432 113.16 41.9467 113.285 42.3665 113.367C42.7809 113.449 43.2008 113.492 43.6261 113.492ZM3.68049 29.4266V84.6819C4.82553 88.4542 6.17232 92.1612 7.72085 95.7863C9.26393 99.417 11.0033 102.955 12.9335 106.395C14.8637 109.84 16.9684 113.165 19.264 116.376C21.554 119.593 24.0077 122.673 26.6358 125.616C29.2585 128.566 32.0339 131.362 34.9619 134.006C37.89 136.65 40.9488 139.13 44.1495 141.442C47.3447 143.759 50.6544 145.89 54.0841 147.847C57.5138 149.799 61.0361 151.565 64.6566 153.135C68.2772 151.565 71.7995 149.799 75.2237 147.847C78.6534 145.89 81.9686 143.759 85.1638 141.442C88.359 139.13 91.4233 136.65 94.3514 134.006C97.274 131.362 100.049 128.566 102.677 125.616C105.3 122.673 107.759 119.593 110.049 116.376C112.339 113.165 114.45 109.84 116.374 106.395C118.305 102.955 120.044 99.417 121.587 95.7918C123.136 92.1612 124.477 88.4542 125.622 84.6819V29.4266C119.978 29.7973 114.368 29.5247 108.79 28.6143C103.206 27.704 97.8029 26.1721 92.5684 24.0297C87.2685 21.8328 82.263 19.0962 77.5574 15.8145C72.8519 12.5382 68.5498 8.78764 64.6566 4.57917C60.7635 8.78764 56.4614 12.5382 51.7559 15.8145C47.0448 19.0962 42.0448 21.8328 36.7449 24.0297C31.5104 26.1721 26.1015 27.704 20.518 28.6143C14.9401 29.5247 9.32391 29.7973 3.68049 29.4266ZM63.9315 156.836C64.1605 156.935 64.4058 156.984 64.6566 156.984C64.9075 156.984 65.1474 156.935 65.3818 156.831C69.1714 155.217 72.8682 153.397 76.4615 151.374C80.0602 149.357 83.5335 147.144 86.8868 144.74C90.2347 142.341 93.4463 139.763 96.5161 137.004C99.5858 134.251 102.498 131.34 105.246 128.266C107.999 125.191 110.573 121.98 112.966 118.622C115.366 115.27 117.574 111.792 119.591 108.194C121.603 104.596 123.419 100.9 125.033 97.1056C126.642 93.306 128.037 89.4355 129.226 85.4832C129.286 85.3142 129.313 85.1343 129.313 84.9544V27.4314C129.313 26.8862 129.112 26.4338 128.708 26.074C128.305 25.7033 127.83 25.5452 127.285 25.5997C104.313 27.8021 81.9849 18.6983 66.0361 0.621458C65.8617 0.425208 65.6545 0.267119 65.4146 0.15809C65.1746 0.0545149 64.9184 0 64.6566 0C64.3895 0 64.1386 0.0545149 63.8987 0.15809C63.6588 0.267119 63.4516 0.425208 63.2771 0.621458C47.3284 18.6983 25.0001 27.8021 2.01745 25.5997C1.76118 25.5779 1.50491 25.6052 1.25955 25.6869C1.01418 25.7687 0.796076 25.8995 0.605236 26.074C0.414395 26.2484 0.267175 26.4501 0.158125 26.69C0.0545254 26.9244 0 27.1752 0 27.4314V84.9544C0 85.1343 0.0272636 85.3142 0.0817886 85.4887C1.27045 89.4355 2.66631 93.306 4.28027 97.1056C5.88878 100.9 7.70449 104.596 9.72194 108.194C11.7394 111.792 13.9422 115.27 16.3414 118.622C18.7405 121.98 21.3141 125.191 24.0622 128.266C26.8158 131.34 29.722 134.251 32.7918 137.004C35.8616 139.763 39.0732 142.341 42.4265 144.74C45.7798 147.144 49.2531 149.357 52.8464 151.38C56.4451 153.397 60.1365 155.217 63.9315 156.836ZM62.8137 90.4985C62.2521 90.3513 61.7123 90.1333 61.1997 89.8552C60.6872 89.5772 60.2128 89.2447 59.782 88.8522C59.3513 88.4597 58.9696 88.0236 58.6479 87.5384C58.3208 87.0532 58.0536 86.5353 57.8518 85.9902C57.6555 85.4396 57.5192 84.8781 57.4538 84.3003C57.3884 83.717 57.3938 83.1391 57.4702 82.5613C57.541 81.9834 57.6883 81.4219 57.8955 80.8768C58.1081 80.3317 58.3807 79.8192 58.7133 79.345C59.0459 78.8652 59.4331 78.4346 59.8693 78.0475C60.3109 77.6605 60.7853 77.3334 61.3033 77.0663C61.8213 76.7937 62.3611 76.592 62.9282 76.4503C63.4952 76.314 64.0732 76.2431 64.6566 76.2431C65.2401 76.2431 65.8126 76.314 66.3797 76.4503C66.9467 76.592 67.492 76.7937 68.01 77.0663C68.5225 77.3334 69.0023 77.6605 69.4386 78.0475C69.8802 78.4346 70.2673 78.8652 70.6 79.345C70.9326 79.8192 71.2052 80.3317 71.4178 80.8768C71.625 81.4219 71.7668 81.9834 71.8431 82.5613C71.9195 83.1391 71.9249 83.717 71.8595 84.3003C71.7941 84.8781 71.6578 85.4396 71.456 85.9902C71.2543 86.5353 70.9925 87.0532 70.6654 87.5384C70.3382 88.0236 69.962 88.4597 69.5312 88.8522C69.095 89.2447 68.6261 89.5772 68.1136 89.8552C67.601 90.1333 67.0612 90.3513 66.4942 90.4985V97.5253C66.4942 97.7652 66.4505 98.0051 66.3578 98.2286C66.2597 98.4521 66.1288 98.6538 65.9544 98.8228C65.7853 98.9972 65.5836 99.1281 65.36 99.2262C65.1365 99.3188 64.902 99.3625 64.6566 99.3625C64.4113 99.3625 64.1768 99.3188 63.9533 99.2262C63.7243 99.1281 63.528 98.9972 63.3535 98.8228C63.1845 98.6538 63.0481 98.4521 62.9554 98.2286C62.8627 98.0051 62.8137 97.7652 62.8137 97.5253V90.4985ZM68.2226 83.488C68.2226 83.9623 68.1354 84.4202 67.95 84.8563C67.7701 85.2924 67.5138 85.6795 67.1812 86.012C66.8431 86.3445 66.4614 86.6062 66.0252 86.7861C65.589 86.966 65.131 87.0587 64.6566 87.0587C64.1877 87.0587 63.7297 86.9715 63.2935 86.7861C62.8573 86.6062 62.4702 86.35 62.1376 86.0175C61.7995 85.6795 61.5432 85.2979 61.3633 84.8563C61.1779 84.4202 61.0907 83.9677 61.0907 83.4935C61.0907 83.0192 61.1779 82.5667 61.3633 82.1306C61.5432 81.6945 61.7995 81.3075 62.1321 80.9695C62.4702 80.6369 62.8518 80.3807 63.2881 80.2008C63.7297 80.0155 64.1823 79.9283 64.6566 79.9283C65.1256 79.9283 65.5836 80.0209 66.0198 80.2008C66.456 80.3807 66.8431 80.6369 67.1757 80.9695C67.5083 81.3075 67.7646 81.6891 67.95 82.1252C68.1299 82.5613 68.2226 83.0192 68.2226 83.488Z" fill="black"/>
</g>
</svg>
