<svg width="142" height="142" viewBox="0 0 142 142" fill="none" xmlns="http://www.w3.org/2000/svg">
<mask id="mask0_12_457" style="mask-type:luminance" maskUnits="userSpaceOnUse" x="0" y="0" width="142" height="142">
<path d="M0 0H141.397V141.367H0V0Z" fill="white"/>
</mask>
<g mask="url(#mask0_12_457)">
<path d="M126.333 0H15.2435C6.83572 0 0 6.83895 0 15.2449V104.104C0 112.51 6.83572 119.349 15.2435 119.349H56.9093V124.899H54.1334C46.4763 124.899 40.2496 131.125 40.2496 138.776C40.2496 140.309 41.4958 141.551 43.0254 141.551H98.5515C100.081 141.551 101.327 140.309 101.327 138.776C101.327 131.125 95.1005 124.899 87.4434 124.899H84.6676V119.349H126.333C134.741 119.349 141.582 112.51 141.582 104.104V15.2449C141.582 6.83895 134.741 0 126.333 0ZM15.2435 5.55045H126.333C131.677 5.55045 136.025 9.89736 136.025 15.2449V91.5919H5.55166V15.2449C5.55166 9.89736 9.89952 5.55045 15.2435 5.55045ZM95.2988 136H46.278C47.4252 132.767 50.5126 130.45 54.1334 130.45H87.4434C91.0643 130.45 94.1517 132.767 95.2988 136ZM79.1159 124.899H62.4609V119.349H79.1159V124.899ZM126.333 113.794H15.2435C9.89952 113.794 5.55166 109.447 5.55166 104.104V97.1424H136.025V104.104C136.025 109.447 131.677 113.794 126.333 113.794Z" fill="black"/>
<path d="M25.7944 60.248C28.3719 62.8203 32.3232 58.9217 29.7221 56.3212L20.5826 47.1837L29.7221 38.0462C30.8079 36.9606 30.8079 35.2049 29.7221 34.1193C28.6363 33.0338 26.8802 33.0338 25.7944 34.1193L14.691 45.2202C13.6053 46.3058 13.6053 48.0615 14.691 49.1471L25.7944 60.248Z" fill="black"/>
<path d="M57.4853 60.248L68.5886 49.1471C69.6697 48.0615 69.6697 46.3058 68.5886 45.2202L57.4853 34.1193C56.3995 33.0338 54.6434 33.0338 53.5576 34.1193C52.4718 35.2049 52.4718 36.9606 53.5576 38.0462L62.697 47.1837L53.5576 56.3212C50.9564 58.9265 54.9124 62.8156 57.4853 60.248Z" fill="black"/>
<path d="M38.8664 61.0598C40.108 61.0598 41.241 60.2197 41.5573 58.9595L47.1089 36.753C47.4819 35.2662 46.5755 33.7606 45.0884 33.3878C43.6014 33.0149 42.0954 33.9211 41.7225 35.4078L36.1708 57.6144C35.7318 59.3607 37.0583 61.0598 38.8664 61.0598Z" fill="black"/>
<path d="M69.4006 77.7158C67.8663 77.7158 66.6248 78.9571 66.6248 80.491C66.6248 82.0202 67.8663 83.2663 69.4006 83.2663H124.922C126.456 83.2663 127.698 82.0202 127.698 80.491C127.698 78.9571 126.456 77.7158 124.922 77.7158H122.146V55.5093C122.146 53.9753 120.905 52.734 119.37 52.734C117.836 52.734 116.594 53.9753 116.594 55.5093V77.7158H111.043V49.9588C111.043 48.4249 109.801 47.1836 108.267 47.1836C106.733 47.1836 105.491 48.4249 105.491 49.9588V77.7158H99.9395V66.6102C99.9395 65.081 98.6932 63.835 97.1636 63.835C95.6294 63.835 94.3878 65.081 94.3878 66.6102V77.7158H88.8314V61.0597C88.8314 59.5305 87.5898 58.2845 86.0556 58.2845C84.526 58.2845 83.2797 59.5305 83.2797 61.0597V77.7158H77.7281V69.3854C77.7281 67.8562 76.4865 66.6102 74.9523 66.6102C73.418 66.6102 72.1764 67.8562 72.1764 69.3854V77.7158H69.4006Z" fill="black"/>
<path d="M74.9522 19.4267H124.922C126.456 19.4267 127.698 18.1854 127.698 16.6514C127.698 15.1222 126.456 13.8762 124.922 13.8762H74.9522C73.418 13.8762 72.1764 15.1222 72.1764 16.6514C72.1764 18.1854 73.418 19.4267 74.9522 19.4267Z" fill="black"/>
<path d="M74.9522 30.5323H108.267C109.801 30.5323 111.043 29.2862 111.043 27.757C111.043 26.2231 109.801 24.9818 108.267 24.9818H74.9522C73.418 24.9818 72.1764 26.2231 72.1764 27.757C72.1764 29.2862 73.418 30.5323 74.9522 30.5323Z" fill="black"/>
<path d="M127.698 105.468C127.698 105.836 127.627 106.19 127.49 106.53C127.349 106.87 127.146 107.172 126.886 107.432C126.626 107.691 126.324 107.894 125.984 108.036C125.644 108.173 125.29 108.243 124.922 108.243C124.554 108.243 124.2 108.173 123.86 108.036C123.52 107.894 123.223 107.691 122.958 107.432C122.699 107.172 122.5 106.87 122.359 106.53C122.217 106.19 122.146 105.836 122.146 105.468C122.146 105.1 122.217 104.746 122.359 104.406C122.5 104.066 122.699 103.769 122.958 103.505C123.223 103.245 123.52 103.047 123.86 102.905C124.2 102.764 124.554 102.693 124.922 102.693C125.29 102.693 125.644 102.764 125.984 102.905C126.324 103.047 126.626 103.245 126.886 103.505C127.146 103.769 127.349 104.066 127.49 104.406C127.627 104.746 127.698 105.1 127.698 105.468Z" fill="black"/>
<path d="M113.819 102.693H111.043C109.508 102.693 108.267 103.939 108.267 105.468C108.267 107.002 109.508 108.243 111.043 108.243H113.819C115.353 108.243 116.594 107.002 116.594 105.468C116.594 103.939 115.353 102.693 113.819 102.693Z" fill="black"/>
<path d="M99.9394 102.693H97.1635C95.6293 102.693 94.3877 103.939 94.3877 105.468C94.3877 107.002 95.6293 108.243 97.1635 108.243H99.9394C101.469 108.243 102.715 107.002 102.715 105.468C102.715 103.939 101.469 102.693 99.9394 102.693Z" fill="black"/>
</g>
</svg>
