<svg width="68" height="64" viewBox="0 0 68 64" fill="none" xmlns="http://www.w3.org/2000/svg">
<path d="M35.5535 0C27.0108 0 18.8179 3.37142 12.7773 9.37259C6.7366 15.3738 3.34302 23.5131 3.34302 32C3.34302 40.4868 6.7366 48.6261 12.7773 54.6276C18.8179 60.6286 27.0108 64 35.5535 64C44.0962 64 52.2891 60.6286 58.3297 54.6276C64.3706 48.6261 67.7641 40.4868 67.7641 32C67.7641 23.5131 64.3706 15.3738 58.3297 9.37259C52.2891 3.37142 44.0962 0 35.5535 0ZM44.0436 58.0878H43.7941C43.6066 58.0985 43.4187 58.0708 43.2426 58.0068C43.0662 57.9424 42.9051 57.8432 42.7688 57.7148C42.6428 57.5826 42.5447 57.4265 42.4803 57.2562C42.4155 57.0859 42.3858 56.9045 42.393 56.7225V52.9735C42.4091 51.728 42.4198 50.4665 42.4198 49.1975C42.4155 48.2692 42.2788 47.3461 42.0143 46.4562C41.7638 45.5559 41.2592 44.7463 40.5595 44.1227C42.4306 43.9431 44.2698 43.5211 46.0299 42.8668C47.5148 42.3058 48.858 41.4283 49.965 40.2962C51.0576 39.1573 51.8707 37.7813 52.3407 36.2798C52.9119 34.4414 53.1839 32.5239 53.1459 30.6C53.1563 29.2567 52.9197 27.9228 52.448 26.664C51.9684 25.3952 51.2437 24.232 50.3139 23.24C50.5147 22.7397 50.6603 22.2193 50.7487 21.688C50.8375 21.1547 50.883 20.616 50.883 20.0773C50.883 19.384 50.8024 18.6907 50.6414 18.016C50.4954 17.324 50.2967 16.6439 50.0483 15.9813C49.9535 15.9446 49.8522 15.9264 49.7502 15.928H49.455C48.8376 15.9333 48.231 16.0347 47.6458 16.224C47.0012 16.4109 46.3706 16.6426 45.759 16.9173C45.1506 17.1883 44.5579 17.4937 43.9845 17.832C43.4076 18.1707 42.8976 18.496 42.4467 18.7973C37.9311 17.547 33.1573 17.547 28.6417 18.7973C28.1381 18.4629 27.6262 18.141 27.1063 17.832C26.5248 17.4909 25.9224 17.1863 25.3025 16.92C24.6923 16.6362 24.0594 16.4033 23.4102 16.224C22.8366 16.0357 22.2373 15.9359 21.6332 15.928H21.338C21.237 15.9266 21.1367 15.9447 21.0427 15.9813C20.7906 16.6448 20.5843 17.3246 20.4253 18.016C20.2804 18.6933 20.2106 19.384 20.2079 20.0773C20.2079 20.616 20.2535 21.1547 20.3448 21.688C20.4334 22.2187 20.5756 22.7387 20.7743 23.24C19.8471 24.2333 19.1249 25.3974 18.6484 26.6667C18.174 27.9251 17.9348 29.2589 17.9424 30.6027C17.9049 32.5162 18.1694 34.4238 18.7262 36.256C19.2121 37.7572 20.0227 39.136 21.0991 40.2987C22.213 41.424 23.5551 42.2987 25.0341 42.8693C26.7869 43.536 28.6229 43.9627 30.4911 44.1387C29.9695 44.6084 29.5557 45.184 29.2779 45.8268C29.0135 46.4622 28.8331 47.1292 28.741 47.8108C27.7561 48.2791 26.679 48.5252 25.5871 48.5308C24.573 48.571 23.5722 48.2908 22.7284 47.7305C21.9189 47.1346 21.2335 46.3886 20.7099 45.5335C20.4755 45.174 20.2135 44.8334 19.9261 44.5148C19.6229 44.1792 19.2885 43.8731 18.9275 43.6C18.5717 43.3358 18.1817 43.1207 17.768 42.96C17.3609 42.7826 16.9213 42.6908 16.4769 42.6908C16.3695 42.6933 16.2621 42.704 16.1547 42.7172C16.0081 42.7168 15.862 42.7349 15.7199 42.7705C15.595 42.8032 15.4769 42.8572 15.371 42.9308C15.3228 42.9572 15.2826 42.9956 15.2542 43.0425C15.226 43.0894 15.2107 43.1428 15.2099 43.1975C15.2212 43.3255 15.2607 43.45 15.3256 43.5616C15.3905 43.6729 15.4793 43.7689 15.5857 43.8425C15.8353 44.0398 16.042 44.192 16.2084 44.2987L16.289 44.3545C16.646 44.6293 16.9895 44.9255 17.3143 45.2427C17.615 45.504 17.8861 45.7998 18.1196 46.1227C18.3612 46.4398 18.5705 46.7787 18.7396 47.1385C18.9356 47.4958 19.1423 47.9065 19.3597 48.3733C19.8643 49.6373 20.7609 50.7065 21.9204 51.4265C23.1364 52.0747 24.5 52.3972 25.8823 52.3627C26.3494 52.3627 26.8191 52.336 27.2835 52.2827C27.7452 52.208 28.2042 52.1305 28.6659 52.0398V56.688C28.6742 56.8754 28.6427 57.0624 28.5733 57.237C28.5039 57.4116 28.3983 57.5694 28.2632 57.7006C28.1282 57.8315 27.9668 57.9328 27.7897 57.9979C27.6125 58.0629 27.4236 58.09 27.2352 58.0772H27.0687C20.8093 56.0683 15.4774 51.9054 12.0333 46.3378C8.58921 40.7701 7.2592 34.1636 8.28271 27.7082C9.30625 21.2528 12.6161 15.3726 17.6162 11.1263C22.6164 6.88004 28.9782 4.54684 35.5562 4.54684C42.1342 4.54684 48.4962 6.88004 53.4963 11.1263C58.4964 15.3726 61.8063 21.2528 62.8298 27.7082C63.8534 34.1636 62.5231 40.7701 59.0791 46.3378C55.6351 51.9054 50.3032 56.0683 44.0436 58.0772V58.0878Z" fill="white"/>
</svg>
