<svg width="159" height="157" viewBox="0 0 159 157" fill="none" xmlns="http://www.w3.org/2000/svg">
<mask id="mask0_12_486" style="mask-type:luminance" maskUnits="userSpaceOnUse" x="0" y="0" width="159" height="157">
<path d="M0 0H158.022V157H0V0Z" fill="white"/>
</mask>
<g mask="url(#mask0_12_486)">
<path d="M156.185 26.7336L149.349 25.0249C149.079 24.2612 148.774 23.5168 148.427 22.7878L152.05 16.6203C152.246 16.2886 152.32 15.926 152.273 15.5441C152.223 15.1584 152.065 14.8306 151.795 14.5529L143.08 5.84349C142.802 5.56963 142.474 5.41149 142.089 5.36135C141.707 5.31506 141.348 5.38835 141.012 5.58506L134.758 9.12204C134.029 8.7749 133.285 8.47018 132.521 8.20018L130.727 1.28052C130.627 0.894809 130.418 0.582383 130.098 0.339385C129.778 0.100243 129.419 -0.0116128 129.018 -4.12443e-05H116.719C116.317 -0.0116128 115.959 0.100243 115.638 0.339385C115.318 0.582383 115.11 0.894809 115.01 1.28052L113.3 8.20018C112.537 8.47018 111.792 8.7749 111.063 9.12204L104.929 5.5002C104.585 5.28421 104.215 5.20321 103.814 5.24949C103.416 5.29963 103.073 5.46549 102.791 5.75477L95.7545 12.794C94.1496 12.1537 92.5099 11.6253 90.8317 11.2049C66.1601 5.12606 46.1373 9.5656 31.2919 24.4078C19.6062 36.0948 16.3076 59.172 15.9141 63.1332C9.33629 70.5119 -0.999175 83.0321 0.536291 87.3366C1.99074 91.3364 9.21669 93.9477 12.5654 94.8541C12.3108 100.628 11.6086 122.186 15.9835 129.514C20.3546 136.839 36.2802 132.928 42.5147 130.999L42.071 155.442C42.0633 155.92 42.2292 156.333 42.5687 156.672C42.9005 157.012 43.3056 157.181 43.7801 157.185H97.668C97.803 157.185 97.9342 157.17 98.0654 157.139C98.1966 157.104 98.3239 157.058 98.4435 156.996C98.5631 156.938 98.6749 156.861 98.7753 156.776C98.8794 156.688 98.9681 156.587 99.0492 156.479C99.1263 156.371 99.1919 156.252 99.2459 156.128C99.2961 156.005 99.3308 155.874 99.3539 155.743C99.3732 155.608 99.381 155.476 99.3694 155.341C99.3578 155.206 99.3308 155.075 99.2884 154.948C99.2884 154.844 97.5831 149.448 99.2884 139.863C99.597 139.948 99.9056 139.944 100.214 139.855C100.523 139.766 100.781 139.604 100.997 139.369L104.894 134.945C105.527 134.945 106.14 135.08 106.757 135.134L109.882 140.256C110.04 140.515 110.249 140.715 110.511 140.862C110.773 141.005 111.051 141.078 111.352 141.078C111.518 141.101 111.684 141.101 111.846 141.078L122.1 138.035C122.475 137.927 122.779 137.714 123.007 137.394C123.239 137.074 123.347 136.719 123.327 136.33L123.088 130.282C123.586 129.904 124.08 129.514 124.543 129.101L130.418 130.556C130.8 130.648 131.167 130.613 131.522 130.455C131.88 130.297 132.15 130.043 132.332 129.699L137.459 120.357C137.644 120.014 137.706 119.652 137.64 119.266C137.579 118.88 137.405 118.556 137.116 118.29L132.675 114.174C132.675 113.557 132.829 112.944 132.864 112.327L137.987 109.187C138.319 108.971 138.547 108.678 138.674 108.304C138.805 107.93 138.802 107.559 138.67 107.185L135.615 96.937C135.499 96.5628 135.287 96.2658 134.967 96.0383C134.65 95.8145 134.295 95.7066 133.906 95.7258L127.857 95.9457C127.482 95.452 127.089 94.9737 126.676 94.4954L128.111 88.621C128.204 88.243 128.169 87.8805 128.015 87.5295C127.86 87.1785 127.613 86.9085 127.274 86.7233L124.492 85.2191C126.082 79.9232 127.012 74.5156 127.274 68.9922H129.103C129.504 69.0037 129.863 68.8919 130.183 68.6527C130.503 68.4136 130.711 68.0973 130.812 67.7116L132.606 60.8768C133.37 60.6107 134.114 60.3021 134.843 59.955L141.012 63.5768C141.348 63.7735 141.707 63.8429 142.092 63.7928C142.478 63.7426 142.806 63.5806 143.08 63.3029L151.706 54.6591C151.98 54.3853 152.138 54.0536 152.189 53.6717C152.235 53.286 152.162 52.9273 151.965 52.5956L148.342 46.4281C148.689 45.6991 148.994 44.9508 149.264 44.1909L156.101 42.4822C156.486 42.3819 156.799 42.1737 157.038 41.8535C157.277 41.5334 157.393 41.1747 157.381 40.7735V28.4732C157.405 28.0798 157.308 27.721 157.084 27.397C156.861 27.073 156.56 26.8493 156.185 26.7336ZM95.4458 153.733H45.5239L45.983 128.658C45.9907 128.519 45.983 128.38 45.956 128.241C45.929 128.102 45.8865 127.971 45.8287 127.844C45.767 127.713 45.6936 127.597 45.6049 127.485C45.5162 127.377 45.4159 127.281 45.304 127.196C45.1921 127.111 45.0725 127.042 44.9413 126.988C44.814 126.934 44.679 126.895 44.5401 126.872C44.4012 126.853 44.2623 126.849 44.1196 126.86C43.9807 126.872 43.8457 126.903 43.7107 126.949C35.6823 129.803 21.8438 132.519 18.9194 127.667C15.2467 121.603 15.6055 101.022 16.0491 93.6083C16.0646 93.2071 15.9488 92.8484 15.7096 92.5283C15.4704 92.2081 15.1579 91.9999 14.7683 91.8996C10.7714 90.8929 4.5177 88.3819 3.69981 86.2103C3.34102 83.9578 11.1804 73.4163 18.7343 64.9962C18.9735 64.7185 19.1123 64.4022 19.1586 64.0396C19.1586 63.7812 22.0135 38.4168 33.7186 26.7992C47.8464 12.6744 66.1794 8.64375 89.9945 14.5027C91.2407 14.8151 92.4636 15.1931 93.6673 15.629C93.6673 15.9453 93.7406 16.2423 93.8911 16.5161L97.5137 22.6837C97.1665 23.4126 96.8617 24.1609 96.5917 24.9208L89.7554 26.6295C89.3696 26.7298 89.0571 26.938 88.8179 27.2582C88.5748 27.5783 88.4629 27.937 88.4745 28.3382V40.6385C88.4629 41.0358 88.5748 41.3945 88.8179 41.7147C89.0571 42.0348 89.3696 42.2469 89.7554 42.3434L96.5917 44.0521C96.8656 44.8235 97.1703 45.5563 97.5137 46.2892L93.8911 52.4567C93.7831 52.6303 93.7098 52.8193 93.6712 53.0199C93.6326 53.2204 93.6287 53.4249 93.6596 53.6254C93.6943 53.8299 93.7599 54.0189 93.8641 54.1963C93.9644 54.3737 94.0917 54.528 94.2499 54.6591L102.791 63.2875C103.065 63.5614 103.397 63.7234 103.779 63.7774C104.165 63.8275 104.524 63.7542 104.859 63.5614L111.028 59.9395C111.761 60.2789 112.498 60.5875 113.266 60.8614L114.975 67.6923C115.075 68.0819 115.283 68.3943 115.604 68.6335C115.924 68.8726 116.283 68.9883 116.684 68.9767H123.74C123.528 73.9756 122.749 78.8818 121.398 83.6993L117.98 81.8055C117.641 81.6204 117.278 81.5625 116.9 81.6281C116.518 81.6898 116.194 81.8634 115.932 82.1449L111.815 86.5883C111.198 86.5883 110.565 86.434 109.952 86.3993L106.823 81.2732C106.622 80.9377 106.337 80.6985 105.97 80.5597C105.604 80.4208 105.233 80.4092 104.859 80.5211L94.6935 83.5644C94.3155 83.6723 94.0145 83.8884 93.7831 84.2046C93.5554 84.5248 93.4474 84.8796 93.4628 85.2731L93.702 91.3172C93.2005 91.6874 92.7144 92.0809 92.2514 92.4974L86.3719 91.0433C85.9939 90.9507 85.6273 90.9854 85.2724 91.1436C84.9136 91.3017 84.6436 91.5563 84.4584 91.8996L79.335 101.122C79.1498 101.465 79.0881 101.832 79.1498 102.214C79.2154 102.599 79.389 102.923 79.6745 103.189L84.1189 107.305C84.1189 107.922 83.9646 108.535 83.9298 109.152L78.8065 112.296C78.4747 112.497 78.2355 112.778 78.0966 113.141C77.9577 113.503 77.9423 113.87 78.0542 114.24L81.0942 124.492C81.2061 124.862 81.4222 125.163 81.7424 125.391C82.0587 125.615 82.4137 125.719 82.8033 125.703L88.868 125.48C89.2268 125.977 89.6203 126.455 90.0293 126.914L88.5941 132.793C88.5015 133.171 88.5362 133.537 88.6944 133.896C88.8526 134.251 89.1034 134.521 89.4506 134.706L95.9589 138.154C94.8517 143.319 94.682 148.51 95.4458 153.733ZM125.569 98.7151C125.731 98.9581 125.943 99.1471 126.205 99.2782C126.468 99.4132 126.742 99.475 127.035 99.4672L132.691 99.2435L134.982 106.896L130.129 109.816C129.878 109.97 129.681 110.175 129.535 110.429C129.388 110.684 129.315 110.958 129.307 111.251C129.292 112.327 129.188 113.391 129.002 114.448C128.89 115.058 129.06 115.575 129.515 116.003L133.647 119.844L129.874 126.864L124.388 125.514C124.103 125.441 123.817 125.445 123.532 125.522C123.242 125.595 122.995 125.738 122.783 125.942C122.016 126.691 121.19 127.37 120.306 127.975C119.793 128.33 119.546 128.82 119.57 129.445L119.774 135.08L112.12 137.371L109.199 132.534C108.875 132.006 108.405 131.732 107.78 131.717C106.707 131.693 105.642 131.585 104.585 131.393H104.281C103.779 131.389 103.355 131.57 103.015 131.936L99.1688 136.071L92.1666 132.295L93.4976 126.814C93.6519 126.209 93.513 125.68 93.0886 125.225C92.344 124.45 91.665 123.617 91.0555 122.729C90.7006 122.216 90.2106 121.974 89.5856 121.997L83.9993 122.166L81.7077 114.533L86.5455 111.594C87.0779 111.27 87.348 110.799 87.3634 110.175C87.3943 109.102 87.51 108.038 87.7068 106.981C87.8148 106.368 87.6373 105.847 87.1782 105.426L82.9731 101.585L86.7654 94.5648L92.2514 95.9148C92.5331 95.9843 92.8186 95.9804 93.1002 95.9033C93.3818 95.8261 93.6287 95.6873 93.8409 95.4867C94.6087 94.7384 95.4343 94.0596 96.3177 93.454C96.5608 93.2881 96.7498 93.076 96.881 92.8137C97.016 92.5553 97.0778 92.2776 97.07 91.9844L96.8463 86.3492L104.5 84.0581L107.421 88.8255C107.571 89.0762 107.772 89.2767 108.023 89.4233C108.277 89.5737 108.547 89.6509 108.841 89.6625C109.917 89.6779 110.982 89.7859 112.035 89.9865C112.324 90.0405 112.61 90.0173 112.892 89.9247C113.169 89.8283 113.408 89.674 113.609 89.458L117.452 85.4081L124.473 89.1996L123.123 94.6844C123.053 94.966 123.057 95.2514 123.134 95.533C123.212 95.8145 123.35 96.0614 123.551 96.2735C124.284 97.0373 124.955 97.8511 125.569 98.7151ZM154.048 39.2885L147.521 40.9972C147.235 41.0667 146.984 41.2017 146.768 41.4022C146.552 41.6028 146.402 41.8419 146.309 42.1235C145.927 43.3038 145.449 44.4416 144.874 45.5409C144.72 45.8032 144.646 46.0886 144.646 46.3933C144.646 46.698 144.72 46.9835 144.874 47.2458L148.292 53.0739L141.456 59.9048L135.63 56.4874C135.368 56.337 135.082 56.2598 134.778 56.2598C134.473 56.2598 134.187 56.337 133.921 56.4874C132.822 57.0621 131.684 57.5404 130.503 57.9223C129.909 58.1151 129.535 58.5162 129.377 59.118L127.667 65.6596H118.169L116.46 59.1025C116.387 58.821 116.252 58.5741 116.051 58.3581C115.851 58.146 115.611 57.9955 115.334 57.9068C114.153 57.525 113.015 57.0467 111.915 56.472C111.653 56.3177 111.368 56.2444 111.063 56.2444C110.758 56.2444 110.473 56.3177 110.206 56.472L104.381 59.8894L97.5484 53.0546L100.963 47.2303C101.117 46.968 101.194 46.6826 101.194 46.3779C101.194 46.0732 101.117 45.7878 100.963 45.5216C100.392 44.4224 99.9133 43.2845 99.5275 42.1042C99.3385 41.5102 98.9373 41.1361 98.3316 40.9779L91.7885 39.2692V29.7036L98.3316 27.9949C98.9373 27.8406 99.3385 27.4626 99.5275 26.8686C99.9133 25.6922 100.392 24.5505 100.963 23.4512C101.117 23.1889 101.194 22.9035 101.194 22.5988C101.194 22.2941 101.117 22.0087 100.963 21.7464L97.5484 15.9183L104.381 9.08732L110.206 12.5047C110.473 12.6552 110.758 12.7323 111.063 12.7323C111.368 12.7323 111.653 12.6552 111.915 12.5047C113.015 11.93 114.153 11.4517 115.334 11.0699C115.908 10.8925 116.283 10.5145 116.46 9.93974L118.169 3.41736H127.822L129.531 9.93974C129.604 10.2252 129.743 10.472 129.94 10.6842C130.14 10.8963 130.38 11.0467 130.657 11.1354C131.838 11.5289 132.976 12.0149 134.076 12.5896C134.342 12.74 134.623 12.8172 134.928 12.8172C135.237 12.8172 135.518 12.74 135.785 12.5896L141.61 9.17218L148.446 16.007L145.028 21.8312C144.874 22.0935 144.797 22.3789 144.797 22.6837C144.797 22.9884 144.874 23.2738 145.028 23.5399C145.603 24.6354 146.081 25.7732 146.463 26.9535C146.556 27.235 146.706 27.4742 146.923 27.6748C147.139 27.8753 147.389 28.0103 147.675 28.0836L154.202 29.7885L154.048 39.2885Z" fill="black"/>
</g>
<path d="M122.938 19.5247C121.95 19.5247 120.974 19.6172 120.006 19.8101C119.037 20.0029 118.096 20.2845 117.186 20.6625C116.275 21.0366 115.407 21.4995 114.585 22.0472C113.767 22.5949 113.007 23.2159 112.309 23.9141C111.611 24.6122 110.986 25.3682 110.438 26.1898C109.89 27.0075 109.427 27.8753 109.049 28.7856C108.671 29.6959 108.386 30.637 108.193 31.6013C108 32.5694 107.903 33.5453 107.899 34.5327C107.899 35.5201 107.996 36.496 108.189 37.4641C108.382 38.4322 108.667 39.3695 109.045 40.2836C109.419 41.1939 109.882 42.0579 110.43 42.8795C110.978 43.7011 111.603 44.457 112.301 45.1552C112.996 45.8533 113.756 46.4743 114.578 47.022C115.395 47.5736 116.263 48.0326 117.174 48.4106C118.084 48.7886 119.026 49.074 119.994 49.2669C120.962 49.4597 121.939 49.5523 122.926 49.5523C123.91 49.5523 124.89 49.4559 125.854 49.263C126.823 49.0702 127.764 48.7847 128.675 48.4067C129.585 48.0287 130.453 47.5659 131.271 47.0182C132.093 46.4705 132.849 45.8456 133.547 45.1475C134.245 44.4493 134.867 43.6895 135.414 42.8718C135.962 42.0502 136.421 41.1824 136.799 40.2721C137.177 39.3618 137.459 38.4207 137.652 37.4525C137.845 36.4844 137.937 35.5085 137.937 34.5211C137.937 33.5376 137.837 32.5617 137.644 31.5974C137.451 30.6331 137.17 29.6959 136.792 28.7856C136.414 27.8753 135.951 27.0113 135.403 26.1936C134.855 25.3759 134.234 24.6199 133.539 23.9218C132.841 23.2275 132.085 22.6026 131.267 22.0588C130.449 21.5111 129.585 21.0482 128.675 20.6702C127.764 20.2922 126.827 20.0068 125.862 19.8139C124.898 19.6211 123.922 19.5247 122.938 19.5247ZM122.938 46.1195C122.174 46.1195 121.418 46.0462 120.673 45.8996C119.925 45.753 119.199 45.5332 118.493 45.2439C117.791 44.9546 117.12 44.5959 116.487 44.1755C115.851 43.7512 115.264 43.2729 114.728 42.7329C114.188 42.1968 113.706 41.6105 113.281 40.9779C112.857 40.3454 112.498 39.6742 112.205 38.9722C111.916 38.2702 111.692 37.5451 111.545 36.7968C111.395 36.0485 111.318 35.2964 111.318 34.5327C111.318 33.7728 111.391 33.0168 111.537 32.2686C111.688 31.5241 111.908 30.7951 112.197 30.0932C112.49 29.3873 112.845 28.72 113.27 28.0875C113.69 27.451 114.172 26.8647 114.709 26.3248C115.249 25.7886 115.835 25.3065 116.468 24.8822C117.101 24.4579 117.768 24.0992 118.474 23.8099C119.176 23.5168 119.902 23.2969 120.65 23.1465C121.398 22.9999 122.151 22.9228 122.915 22.9228C123.675 22.9228 124.431 22.9961 125.179 23.1465C125.924 23.2931 126.649 23.5129 127.355 23.8061C128.057 24.0953 128.729 24.4541 129.361 24.8745C129.994 25.2988 130.58 25.7809 131.12 26.317C131.661 26.857 132.139 27.4433 132.563 28.0759C132.988 28.7084 133.346 29.3796 133.636 30.0816C133.929 30.7874 134.149 31.5126 134.296 32.257C134.446 33.0053 134.519 33.7613 134.519 34.5211C134.519 35.281 134.446 36.037 134.299 36.7814C134.149 37.5297 133.929 38.2548 133.64 38.9568C133.346 39.6588 132.992 40.3261 132.567 40.9586C132.147 41.5912 131.664 42.1775 131.128 42.7175C130.592 43.2536 130.005 43.7358 129.373 44.1601C128.74 44.5843 128.073 44.9392 127.371 45.2323C126.668 45.5255 125.943 45.7453 125.198 45.8958C124.45 46.0423 123.698 46.1195 122.938 46.1195Z" fill="black"/>
<path d="M82.5294 76.6447C82.9075 76.7411 83.274 76.7103 83.6289 76.5521C83.9839 76.3978 84.2578 76.1471 84.443 75.8077L89.0031 67.268C89.1921 66.9248 89.25 66.5583 89.1883 66.1765C89.1227 65.7908 88.9491 65.4668 88.6636 65.2006L84.7169 61.5441C84.7169 61.0311 84.8365 60.5374 84.8712 60.0244L89.4815 57.2241C89.8171 57.0235 90.0524 56.7381 90.1913 56.3794C90.3302 56.0168 90.3456 55.6466 90.2338 55.2763L87.4175 46.1195C87.3017 45.7453 87.0895 45.4483 86.7693 45.2208C86.453 44.9971 86.098 44.8891 85.7084 44.9083L80.3265 45.0935C80.0179 44.6846 79.6938 44.2912 79.3698 43.9171L80.6506 38.6907C80.7432 38.3127 80.7085 37.9424 80.5503 37.5875C80.3921 37.2288 80.1414 36.9588 79.7941 36.7776L71.3375 32.2146C70.998 32.0333 70.6354 31.9754 70.2573 32.0372C69.8753 32.1027 69.5513 32.2763 69.2889 32.5579L65.6817 36.5538C65.1879 36.5538 64.6748 36.4343 64.1617 36.3996L61.3763 31.7903C61.1756 31.4586 60.894 31.2195 60.5314 31.0806C60.1687 30.9417 59.8022 30.9263 59.4319 31.0382L50.2229 33.8037C49.8487 33.9156 49.5478 34.1316 49.3202 34.4517C49.0964 34.768 48.9922 35.1228 49.0077 35.5124L49.2121 40.8931C48.8032 41.2017 48.4097 41.5257 48.0162 41.8651L42.7886 40.5691C42.4106 40.4765 42.0441 40.5074 41.6853 40.6694C41.3303 40.8275 41.0603 41.0782 40.8751 41.4215L36.315 49.8763C36.1298 50.2196 36.0681 50.586 36.1298 50.9717C36.1954 51.3536 36.369 51.6814 36.6545 51.9437L40.6205 55.6003C40.6205 56.1133 40.5009 56.607 40.4661 57.12L35.852 59.9048C35.5202 60.1054 35.2849 60.387 35.146 60.7495C35.0033 61.1121 34.9917 61.4785 35.0997 61.8527L37.8697 71.0403C37.9816 71.4144 38.1977 71.7153 38.514 71.9429C38.8342 72.1666 39.1892 72.2707 39.5788 72.2553L44.9607 72.0509C45.2654 72.4597 45.5741 72.8531 45.9174 73.2466L44.7022 78.473C44.6096 78.851 44.6405 79.2174 44.7948 79.5722C44.9491 79.9271 45.1999 80.201 45.5394 80.3861L53.996 84.9452C54.3394 85.1342 54.7059 85.1921 55.0878 85.1303C55.4736 85.0648 55.7977 84.8912 56.0639 84.6058L59.7366 80.6599C60.2343 80.6599 60.7474 80.7795 61.2412 80.8142L63.9572 85.4081C64.1116 85.6626 64.3199 85.8593 64.5784 86.0059C64.8368 86.1525 65.1146 86.2258 65.4117 86.2296C65.5737 86.2528 65.7396 86.2528 65.9055 86.2296L75.099 83.4795C75.4732 83.3676 75.778 83.1555 76.0056 82.8354C76.2371 82.5152 76.3413 82.1604 76.3258 81.7708L76.1214 76.3901C76.5342 76.0816 76.9238 75.7576 77.3019 75.4143L82.5294 76.6447ZM75.697 72.2553C75.0026 72.9226 74.258 73.5281 73.4555 74.0643C72.9424 74.423 72.6994 74.909 72.7225 75.5338L72.9115 80.5211L66.2489 82.5036L63.6679 78.2492C63.5136 77.9985 63.3091 77.8018 63.0545 77.6553C62.7998 77.5087 62.5259 77.4354 62.2327 77.4315C61.2721 77.4123 60.323 77.3158 59.3778 77.1423H59.0731C58.5715 77.1384 58.1472 77.3197 57.8077 77.6861L54.3895 81.3427L48.2554 78.0448L49.4513 73.1926C49.5208 72.911 49.5169 72.6294 49.4436 72.344C49.3664 72.0624 49.2276 71.8156 49.0269 71.6073C48.3557 70.9169 47.7538 70.1763 47.2137 69.3856C46.8588 68.8726 46.3688 68.6257 45.7438 68.6489L40.7555 68.8225L38.7725 62.1612L42.9931 59.5461C43.5255 59.2221 43.7994 58.7515 43.8149 58.1267C43.8341 57.1701 43.9306 56.2174 44.1042 55.2763C44.1621 54.987 44.1428 54.7016 44.0502 54.4239C43.9615 54.1461 43.8071 53.9031 43.5911 53.7026L39.9376 50.289L43.2516 44.1562L48.0856 45.3519C48.3711 45.4175 48.6566 45.4136 48.9382 45.3326C49.2198 45.2555 49.4668 45.1128 49.6751 44.9083C50.3695 44.2488 51.1102 43.6471 51.8973 43.0955C52.1403 42.9335 52.3255 42.7214 52.4605 42.4591C52.5956 42.1968 52.6573 41.9191 52.6457 41.6259L52.4605 36.658L59.1232 34.66L61.7891 38.9645C62.1131 39.493 62.5838 39.7668 63.2049 39.7822C64.1694 39.8015 65.1262 39.898 66.0753 40.0715C66.6925 40.1795 67.2095 40.006 67.63 39.5431L71.0482 35.9058L77.163 39.2885L75.9863 44.1215C75.9169 44.4069 75.9208 44.6885 75.9941 44.9701C76.0712 45.2516 76.2101 45.4985 76.4146 45.7106C77.0434 46.3741 77.6183 47.0799 78.1391 47.8282C78.494 48.3412 78.984 48.588 79.609 48.561L84.578 48.3759L86.5803 55.0371L82.2902 57.6484C82.0356 57.8027 81.835 58.0033 81.6845 58.2578C81.5379 58.5163 81.4608 58.7901 81.4531 59.0832C81.4453 60.0437 81.345 60.9964 81.1637 61.9375C81.1097 62.2268 81.129 62.5122 81.2254 62.7938C81.318 63.0715 81.4762 63.3106 81.6923 63.5074L85.3303 66.9248L82.0356 73.0576L77.163 71.8272C76.5843 71.7076 76.0751 71.8503 75.643 72.2553H75.697Z" fill="black"/>
<path d="M74.2616 55.1375C74.0301 54.3777 73.7292 53.6487 73.3589 52.9467C72.9846 52.2447 72.5487 51.5851 72.0433 50.9719C71.5418 50.3547 70.9862 49.7954 70.3728 49.2902C69.7594 48.7849 69.1035 48.3413 68.4053 47.9672C67.7031 47.5892 66.9739 47.2845 66.2139 47.053C65.4578 46.8177 64.6823 46.6635 63.8914 46.5825C63.1006 46.5015 62.3097 46.4976 61.5188 46.5709C60.7279 46.648 59.9525 46.7985 59.1925 47.026C58.5019 47.2343 57.8383 47.5005 57.1979 47.8245C56.5575 48.1485 55.9479 48.5303 55.3769 48.9623C54.8021 49.3943 54.2736 49.8764 53.7875 50.4049C53.2975 50.9333 52.8616 51.5003 52.4758 52.1059C52.09 52.7114 51.7582 53.344 51.4843 54.0113C51.2142 54.6747 51.002 55.3574 50.8477 56.0594C50.6972 56.7614 50.6085 57.4711 50.5854 58.1924C50.5584 58.9098 50.6008 59.6234 50.7011 60.3331C50.8053 61.0466 50.9673 61.7409 51.1949 62.4236C51.4225 63.1063 51.708 63.7621 52.0514 64.3908C52.3947 65.0233 52.7921 65.6173 53.2435 66.1805C53.691 66.7397 54.1887 67.2566 54.7288 67.7272C55.2728 68.1977 55.8515 68.6182 56.4687 68.9884C57.086 69.3549 57.7303 69.6673 58.4016 69.9219C59.0729 70.1764 59.7634 70.3693 60.4694 70.4966C61.1754 70.6277 61.8892 70.6971 62.6067 70.701C63.0774 70.701 63.5481 70.674 64.0149 70.6239C64.4817 70.5699 64.9447 70.4889 65.3999 70.3809C65.859 70.2729 66.3104 70.1379 66.7502 69.9797C67.1939 69.8216 67.6259 69.6364 68.0465 69.4243C68.467 69.216 68.8721 68.9807 69.2656 68.7223C69.6591 68.4639 70.0372 68.1862 70.3998 67.8853C70.7586 67.5806 71.102 67.2605 71.426 66.9172C71.7462 66.5777 72.051 66.219 72.3326 65.841C72.6143 65.463 72.8689 65.0735 73.1081 64.6646C73.3434 64.2596 73.5518 63.8392 73.7408 63.4072C73.926 62.9752 74.088 62.5355 74.223 62.0842C74.3581 61.6329 74.4661 61.1778 74.5471 60.7149C74.632 60.2521 74.686 59.7854 74.713 59.3148C74.74 58.8481 74.74 58.3775 74.713 57.907C74.686 57.4402 74.632 56.9735 74.551 56.5107C74.47 56.0478 74.3619 55.5888 74.2269 55.1375H74.2616ZM65.2031 66.9249C64.0998 67.2527 62.9771 67.353 61.8313 67.2373C60.6855 67.1177 59.6053 66.786 58.5945 66.2422C57.8383 65.8333 57.1593 65.3203 56.5536 64.7109C55.9518 64.0976 55.4502 63.4111 55.049 62.6512C54.6516 61.8875 54.37 61.0852 54.208 60.2405C54.0498 59.3958 54.0151 58.5472 54.1077 57.6948C54.1964 56.8385 54.4124 56.017 54.7481 55.2263C55.0837 54.4355 55.5274 53.7104 56.0791 53.0508C56.6308 52.3913 57.2635 51.8243 57.9849 51.3537C58.7025 50.8831 59.4779 50.5283 60.2997 50.2892C61.1099 50.05 61.9355 49.9304 62.7804 49.9304C63.714 49.9304 64.6245 50.0732 65.5079 50.3663C66.3953 50.6594 67.2131 51.0876 67.9654 51.643C68.7139 52.1984 69.3543 52.8618 69.8906 53.6256C70.4268 54.3893 70.8319 55.2185 71.0981 56.1134C71.2601 56.6611 71.3682 57.2204 71.4183 57.7912C71.4685 58.3582 71.4646 58.9291 71.4029 59.4961C71.3412 60.0631 71.2254 60.6224 71.0557 61.1662C70.8859 61.7139 70.6622 62.2385 70.3921 62.7399C70.1182 63.2413 69.798 63.7119 69.4315 64.1516C69.065 64.5913 68.6599 64.9886 68.2124 65.3473C67.7687 65.706 67.2942 66.0185 66.7888 66.2846C66.2795 66.5507 65.7548 66.7629 65.2031 66.9249Z" fill="black"/>
<path d="M114.581 99.0739C114.141 98.8347 113.69 98.6226 113.223 98.4374C112.76 98.2484 112.286 98.0903 111.803 97.9553C111.317 97.8241 110.831 97.72 110.334 97.6429C109.84 97.5657 109.342 97.5156 108.841 97.4963C108.343 97.477 107.841 97.4847 107.344 97.5194C106.842 97.5542 106.348 97.6197 105.854 97.7123C105.365 97.8049 104.878 97.9244 104.4 98.0749C103.922 98.2214 103.451 98.395 102.992 98.5994C102.533 98.8 102.089 99.0237 101.657 99.2783C101.225 99.529 100.804 99.8067 100.403 100.104C100.002 100.405 99.62 100.725 99.2535 101.068C98.8909 101.411 98.5475 101.774 98.2234 102.156C97.8994 102.538 97.5985 102.939 97.3207 103.355C97.0429 103.768 96.7883 104.2 96.5568 104.647C96.3292 105.091 96.1247 105.546 95.9472 106.017C95.7698 106.483 95.6193 106.962 95.4997 107.448C95.3763 107.934 95.2798 108.424 95.2142 108.921C95.1448 109.415 95.1062 109.912 95.0985 110.414C95.0869 110.915 95.1062 111.417 95.1525 111.914C95.1988 112.412 95.2721 112.905 95.3763 113.395C95.4766 113.885 95.6077 114.367 95.7659 114.846C95.9241 115.32 96.1054 115.783 96.3176 116.238C96.5259 116.693 96.7651 117.133 97.0236 117.561C97.286 117.989 97.5676 118.402 97.8762 118.795C98.1849 119.193 98.5128 119.567 98.8639 119.925C99.2149 120.284 99.5814 120.62 99.9711 120.936C100.361 121.252 100.766 121.545 101.186 121.815C101.611 122.085 102.047 122.328 102.494 122.548C102.946 122.768 103.405 122.961 103.879 123.131C104.35 123.297 104.832 123.439 105.318 123.551C105.804 123.663 106.298 123.748 106.796 123.806C107.293 123.864 107.795 123.891 108.293 123.894C109.593 123.891 110.862 123.702 112.104 123.327C113.354 122.953 114.519 122.406 115.607 121.68C116.691 120.959 117.652 120.095 118.482 119.092C119.311 118.086 119.978 116.982 120.48 115.779C120.985 114.576 121.302 113.326 121.433 112.026C121.568 110.73 121.51 109.442 121.259 108.161C121.009 106.881 120.58 105.666 119.971 104.512C119.361 103.359 118.597 102.322 117.679 101.392C116.761 100.466 115.727 99.6948 114.581 99.0739ZM116.923 115.335C116.618 115.899 116.259 116.431 115.85 116.925C115.441 117.418 114.986 117.87 114.489 118.275C113.991 118.68 113.455 119.034 112.888 119.331C112.32 119.632 111.73 119.875 111.113 120.06C110.499 120.242 109.871 120.365 109.23 120.427C108.59 120.489 107.953 120.485 107.313 120.419C106.672 120.354 106.047 120.226 105.434 120.037C104.821 119.848 104.23 119.601 103.663 119.297C103.1 118.992 102.571 118.633 102.078 118.224C101.584 117.816 101.132 117.364 100.731 116.867C100.326 116.369 99.9711 115.837 99.674 115.27C99.3731 114.703 99.1301 114.113 98.9449 113.496C98.7636 112.882 98.6401 112.257 98.5784 111.617C98.5166 110.981 98.5205 110.34 98.5861 109.704C98.6478 109.064 98.7751 108.439 98.9642 107.826C99.1493 107.212 99.3963 106.626 99.701 106.059C100.006 105.496 100.361 104.964 100.77 104.47C101.179 103.972 101.634 103.525 102.132 103.116C102.629 102.711 103.162 102.36 103.729 102.059C104.296 101.758 104.886 101.515 105.503 101.33C106.117 101.145 106.746 101.022 107.382 100.964C108.023 100.902 108.663 100.902 109.3 100.968C109.94 101.033 110.565 101.161 111.182 101.35C111.796 101.539 112.386 101.785 112.949 102.086C113.516 102.391 114.045 102.75 114.539 103.159C115.036 103.567 115.488 104.019 115.893 104.516C116.298 105.018 116.653 105.55 116.954 106.117C117.255 106.684 117.494 107.274 117.679 107.887C117.864 108.504 117.988 109.129 118.049 109.77C118.107 110.41 118.107 111.05 118.042 111.687C117.976 112.327 117.849 112.952 117.66 113.565C117.475 114.178 117.228 114.768 116.923 115.335Z" fill="black"/>
</svg>
