<svg width="117" height="154" viewBox="0 0 117 154" fill="none" xmlns="http://www.w3.org/2000/svg">
<path d="M57.7247 1.76587C42.2342 1.76587 29.474 13.3407 27.562 28.3094C37.0977 28.2122 45.4101 23.0769 50.0119 15.4548C52.5963 16.2891 55.3509 16.7589 58.2108 16.7589C60.4793 16.7589 62.6587 16.443 64.757 15.9084C69.2211 24.219 77.9709 29.8808 88.0576 29.9213C86.8829 14.1831 73.7662 1.76587 57.7247 1.76587Z" fill="black"/>
<mask id="mask0_12_473" style="mask-type:luminance" maskUnits="userSpaceOnUse" x="0" y="83" width="117" height="71">
<path d="M0 83.1136H116.665V153.964H0V83.1136Z" fill="white"/>
</mask>
<g mask="url(#mask0_12_473)">
<path d="M114.405 154.523H1.91252C1.37781 154.523 0.875505 154.28 0.543332 153.867C0.203061 153.454 0.0734328 152.911 0.178755 152.392L7.49461 117.02C10.7353 101.387 22.9932 89.5449 38.7349 86.8557L42.5589 86.1996C52.9129 84.4338 63.4046 84.4338 73.7586 86.1996L77.5826 86.8557C93.3243 89.5449 105.582 101.387 108.823 117.02L116.139 152.392C116.244 152.911 116.114 153.454 115.774 153.867C115.442 154.28 114.94 154.523 114.405 154.523ZM4.08379 150.983H112.234L105.355 117.741C102.414 103.542 91.2827 92.7849 76.9912 90.3468L73.1591 89.6907C63.2102 87.9897 53.1154 87.9897 43.1584 89.6907L39.3263 90.3468C25.0349 92.7849 13.9031 103.542 10.9622 117.741L4.08379 150.983Z" fill="black"/>
</g>
<mask id="mask1_12_473" style="mask-type:luminance" maskUnits="userSpaceOnUse" x="23" y="0" width="67" height="77">
<path d="M23.5757 0H89.945V76.893H23.5757V0Z" fill="white"/>
</mask>
<g mask="url(#mask1_12_473)">
<path d="M57.7242 76.2449C39.3495 76.2449 25.5117 49.5313 25.5117 32.2055C25.5117 14.4422 39.9652 0 57.7242 0C75.4913 0 89.9366 14.4422 89.9366 32.2055C89.9366 49.5313 76.107 76.2449 57.7242 76.2449ZM57.7242 3.53968C41.9177 3.53968 29.0522 16.3943 29.0522 32.2055C29.0522 48.1948 41.9015 72.7053 57.7242 72.7053C73.555 72.7053 86.3962 48.1948 86.3962 32.2055C86.3962 16.3943 73.5387 3.53968 57.7242 3.53968Z" fill="black"/>
</g>
</svg>
