<svg width="71" height="59" viewBox="0 0 71 59" fill="none" xmlns="http://www.w3.org/2000/svg">
<path d="M47.8373 8.73716C45.4132 8.73788 43.0861 9.69865 41.357 11.4129C39.6277 13.127 38.6344 15.4576 38.5906 17.9032L38.4987 22.973C38.4942 23.2456 38.4324 23.5142 38.3173 23.7609C38.2023 24.0076 38.0366 24.2269 37.8313 24.4041C37.626 24.5814 37.3857 24.7127 37.1264 24.7893C36.8671 24.8659 36.5946 24.886 36.327 24.8484L31.3486 24.1657C24.7957 23.2638 18.5185 20.2169 12.496 15.1555C10.5874 25.8092 14.3128 33.1927 23.288 38.8862L28.8594 42.4222C29.1232 42.5907 29.3422 42.8221 29.4974 43.096C29.6526 43.3695 29.7393 43.6772 29.75 43.9924C29.7607 44.3076 29.6951 44.6203 29.5588 44.9044C29.4225 45.188 29.2197 45.4337 28.968 45.6208L23.8894 49.3631C26.9132 49.5527 29.7782 49.4179 32.1588 48.9417C47.2108 45.9074 57.2176 34.4822 57.2176 15.6275C57.2176 14.0893 53.9892 8.73716 47.8373 8.73716ZM32.209 17.781C32.2646 14.6779 33.2262 11.6603 34.9733 9.10604C36.7205 6.55176 39.1756 4.57429 42.0311 3.42124C44.887 2.2682 48.016 1.99081 51.0273 2.6238C54.0385 3.25679 56.7975 4.77203 58.9592 6.97981C61.227 6.96716 63.1566 7.54452 67.475 4.90638C66.4058 10.1827 65.8796 12.4752 63.5993 15.6275C63.5993 40.2305 48.6141 52.1909 33.4118 55.2547C22.9831 57.3534 7.82254 53.9061 3.479 49.3294C5.69254 49.1524 14.6887 48.1789 19.8925 44.3397C15.4905 41.4105 -2.02141 31.0139 9.48478 3.05632C14.8891 9.41988 20.3645 13.7564 25.915 16.0532C29.6112 17.5829 30.5175 17.545 32.209 17.781Z" fill="white"/>
</svg>
